G04 #@! TF.FileFunction,Copper,L2,Bot,Signal*
%FSLAX46Y46*%
G04 Gerber Fmt 4.6, Leading zero omitted, Abs format (unit mm)*
G04 Created by KiCad (PCBNEW 4.0.1-stable) date 12/21/2015 1:33:06 PM*
%MOMM*%
G01*
G04 APERTURE LIST*
%ADD10C,0.150000*%
%ADD11C,3.937000*%
%ADD12O,2.499360X1.800860*%
%ADD13C,2.500000*%
%ADD14O,2.999740X5.001260*%
%ADD15R,2.000000X2.000000*%
%ADD16C,2.000000*%
%ADD17O,1.699260X3.500120*%
%ADD18O,1.600000X2.500000*%
%ADD19C,1.699260*%
%ADD20R,1.699260X1.699260*%
%ADD21R,1.727200X2.032000*%
%ADD22O,1.727200X2.032000*%
%ADD23R,1.727200X1.727200*%
%ADD24O,1.727200X1.727200*%
%ADD25C,1.524000*%
%ADD26R,1.300000X1.300000*%
%ADD27C,1.300000*%
%ADD28R,2.032000X2.032000*%
%ADD29O,2.032000X2.032000*%
%ADD30R,1.905000X1.905000*%
%ADD31C,1.905000*%
%ADD32C,0.889000*%
%ADD33C,2.499360*%
%ADD34C,1.998980*%
%ADD35C,1.500000*%
%ADD36C,1.501140*%
%ADD37C,1.000760*%
%ADD38C,2.000000*%
%ADD39C,2.500000*%
%ADD40C,2.501140*%
%ADD41C,1.000000*%
%ADD42C,0.254000*%
G04 APERTURE END LIST*
D10*
D11*
X113000000Y-95000000D03*
D12*
X96000260Y-103800860D03*
X96000260Y-100300740D03*
X96000260Y-107300980D03*
X99000000Y-105601720D03*
X99000000Y-102000000D03*
D13*
X165580000Y-126000000D03*
X155420000Y-126000000D03*
X123000000Y-110580000D03*
X123000000Y-100420000D03*
D14*
X161018800Y-157500000D03*
X164981200Y-157500000D03*
X157058940Y-157500000D03*
X168941060Y-157500000D03*
X141209860Y-157500000D03*
X145169720Y-157500000D03*
X149129580Y-157500000D03*
X153089440Y-157500000D03*
X137250000Y-157500000D03*
D13*
X126500000Y-133170000D03*
X126500000Y-143330000D03*
D15*
X122750000Y-150000000D03*
D16*
X125290000Y-150000000D03*
D17*
X110000000Y-78000000D03*
X107460000Y-78000000D03*
X112540000Y-78000000D03*
D18*
X119000000Y-123000000D03*
X121540000Y-123000000D03*
X124080000Y-123000000D03*
X126620000Y-123000000D03*
X129160000Y-123000000D03*
X131700000Y-123000000D03*
X134240000Y-123000000D03*
X136780000Y-123000000D03*
X139320000Y-123000000D03*
X141860000Y-123000000D03*
X144400000Y-123000000D03*
X146940000Y-123000000D03*
X149480000Y-123000000D03*
X152020000Y-123000000D03*
X152020000Y-115380000D03*
X149480000Y-115380000D03*
X146940000Y-115380000D03*
X144400000Y-115380000D03*
X141860000Y-115380000D03*
X139320000Y-115380000D03*
X136780000Y-115380000D03*
X134240000Y-115380000D03*
X131700000Y-115380000D03*
X129160000Y-115380000D03*
X126620000Y-115380000D03*
X124080000Y-115380000D03*
X121540000Y-115380000D03*
X119000000Y-115380000D03*
D16*
X136750000Y-111750000D03*
X141750000Y-111750000D03*
X101000000Y-75000000D03*
X101000000Y-80000000D03*
X120000000Y-75000000D03*
X120000000Y-80000000D03*
D19*
X87000000Y-86000000D03*
D20*
X97160000Y-86000000D03*
D15*
X124000000Y-78000000D03*
D16*
X124000000Y-75460000D03*
D15*
X130750000Y-150000000D03*
D16*
X128210000Y-150000000D03*
D15*
X152000000Y-88710000D03*
D16*
X152000000Y-91250000D03*
D15*
X147000000Y-88710000D03*
D16*
X147000000Y-91250000D03*
D19*
X89500000Y-98000000D03*
D20*
X99660000Y-98000000D03*
D21*
X119920000Y-155500000D03*
D22*
X122460000Y-155500000D03*
X125000000Y-155500000D03*
X127540000Y-155500000D03*
X130080000Y-155500000D03*
X132620000Y-155500000D03*
D23*
X119000000Y-109040000D03*
D24*
X116460000Y-109040000D03*
X119000000Y-106500000D03*
X116460000Y-106500000D03*
D13*
X114000000Y-113000000D03*
X114000000Y-123160000D03*
X130000000Y-133170000D03*
X130000000Y-143330000D03*
X125000000Y-91080000D03*
X125000000Y-80920000D03*
X161497540Y-96920940D03*
X161497540Y-107080940D03*
X155000000Y-96920000D03*
X155000000Y-107080000D03*
X158000000Y-96920000D03*
X158000000Y-107080000D03*
X151997940Y-96920940D03*
X151997940Y-107080940D03*
X148998200Y-96920940D03*
X148998200Y-107080940D03*
X145000000Y-107000000D03*
X134840000Y-107000000D03*
X145080000Y-102500000D03*
X134920000Y-102500000D03*
X133500000Y-133500000D03*
X133500000Y-143660000D03*
X123000000Y-133170000D03*
X123000000Y-143330000D03*
X145080000Y-96500000D03*
X134920000Y-96500000D03*
X127000000Y-110660000D03*
X127000000Y-100500000D03*
X132420000Y-92000000D03*
X142580000Y-92000000D03*
X132420000Y-88500000D03*
X142580000Y-88500000D03*
D25*
X97285000Y-83500000D03*
X108715000Y-83500000D03*
D18*
X114500000Y-127880000D03*
X119580000Y-127880000D03*
X114500000Y-135500000D03*
X119580000Y-135500000D03*
X160660000Y-135500000D03*
X158120000Y-135500000D03*
X155580000Y-135500000D03*
X153040000Y-135500000D03*
X150500000Y-135500000D03*
X147960000Y-135500000D03*
X145420000Y-135500000D03*
X142880000Y-135500000D03*
X142880000Y-143120000D03*
X145420000Y-143120000D03*
X147960000Y-143120000D03*
X150500000Y-143120000D03*
X153040000Y-143120000D03*
X155580000Y-143120000D03*
X158120000Y-143120000D03*
X160660000Y-143120000D03*
D16*
X159000000Y-120940940D03*
X159000000Y-116059060D03*
D26*
X163000000Y-121000000D03*
D27*
X165500000Y-121000000D03*
D26*
X163000000Y-116000000D03*
D27*
X165500000Y-116000000D03*
D14*
X90018800Y-79000000D03*
X93981200Y-79000000D03*
X161459860Y-80500000D03*
X157500000Y-80500000D03*
X153540140Y-80500000D03*
X149580280Y-80500000D03*
X165419720Y-80500000D03*
X138481200Y-80500000D03*
X134518800Y-80500000D03*
X142441060Y-80500000D03*
X130558940Y-80500000D03*
D27*
X89500000Y-92000000D03*
D26*
X93000000Y-92000000D03*
D27*
X90000000Y-102000000D03*
D26*
X90000000Y-105500000D03*
D27*
X108000000Y-89500000D03*
D26*
X104500000Y-89500000D03*
D27*
X117500000Y-87500000D03*
D26*
X121000000Y-87500000D03*
D27*
X87500000Y-112500000D03*
D26*
X91000000Y-112500000D03*
D21*
X158160000Y-148500000D03*
D22*
X155620000Y-148500000D03*
X153080000Y-148500000D03*
X150540000Y-148500000D03*
X148000000Y-148500000D03*
X145460000Y-148500000D03*
X142920000Y-148500000D03*
X140380000Y-148500000D03*
D21*
X93920000Y-123500000D03*
D22*
X96460000Y-123500000D03*
X99000000Y-123500000D03*
X101540000Y-123500000D03*
X104080000Y-123500000D03*
X106620000Y-123500000D03*
X109160000Y-123500000D03*
D23*
X116500000Y-148500000D03*
D24*
X113960000Y-148500000D03*
X116500000Y-145960000D03*
X113960000Y-145960000D03*
D28*
X94460000Y-117000000D03*
D29*
X97000000Y-117000000D03*
D11*
X87000000Y-158500000D03*
X109000000Y-158500000D03*
X165500000Y-101000000D03*
D30*
X108000000Y-101460000D03*
D31*
X108000000Y-106540000D03*
D26*
X145000000Y-99500000D03*
D27*
X140000000Y-99500000D03*
D26*
X162500000Y-89000000D03*
D27*
X167500000Y-89000000D03*
D26*
X163000000Y-93000000D03*
D27*
X168000000Y-93000000D03*
D32*
X134105674Y-118894326D03*
X140458055Y-118871945D03*
X140394326Y-118894326D03*
D33*
X96149360Y-92000000D02*
X96000260Y-92149100D01*
X96000260Y-92149100D02*
X96000260Y-100300740D01*
X93000000Y-92000000D02*
X96149360Y-92000000D01*
X96149360Y-92000000D02*
X97160000Y-90989360D01*
X97160000Y-90989360D02*
X97160000Y-90840000D01*
X97160000Y-86000000D02*
X97160000Y-89558019D01*
X97160000Y-89558019D02*
X97160000Y-90840000D01*
X104500000Y-89500000D02*
X101350640Y-89500000D01*
X101350640Y-89500000D02*
X101292621Y-89558019D01*
X101292621Y-89558019D02*
X97160000Y-89558019D01*
X97160000Y-90840000D02*
X96500000Y-91500000D01*
X97160000Y-86000000D02*
X97160000Y-83625000D01*
X97160000Y-83625000D02*
X97285000Y-83500000D01*
X134920000Y-102500000D02*
X134920000Y-106920000D01*
X134920000Y-106920000D02*
X134840000Y-107000000D01*
D34*
X138481200Y-80500000D02*
X138500000Y-80518800D01*
X134920000Y-100500000D02*
X134920000Y-103500000D01*
X138500000Y-80518800D02*
X138500000Y-93886331D01*
X138500000Y-93886331D02*
X137711048Y-94675283D01*
X137711048Y-94675283D02*
X136094412Y-94675283D01*
X136094412Y-94675283D02*
X134903207Y-95866488D01*
X134903207Y-100483207D02*
X134920000Y-100500000D01*
X134903207Y-95866488D02*
X134903207Y-100483207D01*
D35*
X114000000Y-113000000D02*
X114000000Y-104000000D01*
X114000000Y-104000000D02*
X123000000Y-104000000D01*
X123000000Y-104000000D02*
X123000000Y-100420000D01*
D33*
X123000000Y-100420000D02*
X124931874Y-100420000D01*
X124931874Y-100420000D02*
X126920000Y-100420000D01*
X125000000Y-91080000D02*
X125000000Y-92847766D01*
X125000000Y-92847766D02*
X124931874Y-92915892D01*
X124931874Y-92915892D02*
X124931874Y-100420000D01*
X126920000Y-100420000D02*
X127000000Y-100500000D01*
D36*
X125000000Y-91080000D02*
X125000000Y-87545205D01*
X125000000Y-87545205D02*
X125000000Y-86500000D01*
D34*
X121000000Y-87500000D02*
X124954795Y-87500000D01*
X124954795Y-87500000D02*
X125000000Y-87545205D01*
X120000000Y-84500000D02*
X120648980Y-84500000D01*
X120648980Y-84500000D02*
X121000000Y-84851020D01*
X121000000Y-84851020D02*
X121000000Y-87500000D01*
X120000000Y-80000000D02*
X120000000Y-84500000D01*
D37*
X139320000Y-115380000D02*
X139320000Y-116736130D01*
X139320000Y-116736130D02*
X134240000Y-121816130D01*
X134240000Y-121816130D02*
X134240000Y-123000000D01*
D36*
X134920000Y-103500000D02*
X139320000Y-107900000D01*
X139320000Y-107900000D02*
X139320000Y-115380000D01*
X125000000Y-86500000D02*
X127500000Y-84000000D01*
X138000000Y-76000000D02*
X138500000Y-76500000D01*
X127500000Y-76000000D02*
X138000000Y-76000000D01*
X127500000Y-84000000D02*
X127500000Y-76000000D01*
X138500000Y-76500000D02*
X149500000Y-76500000D01*
D33*
X149500000Y-76500000D02*
X149500000Y-80419720D01*
X138500000Y-80481200D02*
X138500000Y-76500000D01*
X149500000Y-80419720D02*
X149580280Y-80500000D01*
X138481200Y-80500000D02*
X138500000Y-80481200D01*
D36*
X125000000Y-86500000D02*
X125000000Y-86000000D01*
D34*
X112540000Y-78000000D02*
X118000000Y-78000000D01*
X118000000Y-78000000D02*
X120000000Y-80000000D01*
X168000000Y-93000000D02*
X168000000Y-89500000D01*
X168000000Y-89500000D02*
X167500000Y-89000000D01*
D37*
X169000000Y-78000000D02*
X169000000Y-93004526D01*
X169000000Y-93004526D02*
X169000000Y-103500000D01*
D36*
X140000000Y-99500000D02*
X140000000Y-103500000D01*
X140000000Y-103500000D02*
X141750000Y-105250000D01*
X141750000Y-105250000D02*
X141750000Y-111750000D01*
X142580000Y-92000000D02*
X142580000Y-95420000D01*
X142580000Y-95420000D02*
X140000000Y-98000000D01*
X140000000Y-98000000D02*
X140000000Y-99500000D01*
D38*
X116460000Y-109040000D02*
X116460000Y-106500000D01*
D34*
X87950740Y-103049260D02*
X92000000Y-103049260D01*
X87500000Y-103500000D02*
X87950740Y-103049260D01*
X87500000Y-112500000D02*
X87500000Y-103500000D01*
X92000000Y-102000000D02*
X90000000Y-102000000D01*
X92000000Y-103049260D02*
X92000000Y-102000000D01*
X96000260Y-103800860D02*
X92751600Y-103800860D01*
X92751600Y-103800860D02*
X92000000Y-103049260D01*
X89500000Y-98000000D02*
X89500000Y-101500000D01*
X89500000Y-101500000D02*
X90000000Y-102000000D01*
X106620000Y-123500000D02*
X106620000Y-126514980D01*
X106620000Y-126514980D02*
X106539796Y-126595184D01*
X106539796Y-126595184D02*
X106403378Y-126595184D01*
D37*
X106412025Y-126586537D02*
X106403378Y-126595184D01*
X106403378Y-126595184D02*
X96465608Y-126595184D01*
X96465608Y-126595184D02*
X96460000Y-126600792D01*
X106620000Y-123500000D02*
X106620000Y-123652400D01*
X106620000Y-123652400D02*
X106500000Y-123772400D01*
D34*
X96460000Y-123294976D02*
X96460000Y-126600792D01*
X96460000Y-126600792D02*
X96460000Y-128460000D01*
X96470726Y-123284250D02*
X96460000Y-123294976D01*
X96460000Y-128460000D02*
X97500000Y-129500000D01*
X97500000Y-129500000D02*
X97500000Y-132000000D01*
D37*
X106827140Y-120672860D02*
X106620000Y-120880000D01*
D35*
X106620000Y-120880000D02*
X106620000Y-123500000D01*
D37*
X111327140Y-120672860D02*
X106827140Y-120672860D01*
D34*
X93981200Y-79000000D02*
X93981200Y-84783439D01*
X93981200Y-84783439D02*
X89500000Y-89264639D01*
X89500000Y-89264639D02*
X89500000Y-92000000D01*
X89500000Y-98000000D02*
X89500000Y-92000000D01*
D37*
X117500000Y-101000000D02*
X111434909Y-101000000D01*
X116420000Y-116000000D02*
X116460000Y-115960000D01*
X111434909Y-101000000D02*
X111434909Y-116000000D01*
X111434909Y-116000000D02*
X116420000Y-116000000D01*
X116460000Y-115960000D02*
X116460000Y-109040000D01*
D39*
X117500000Y-87500000D02*
X117500000Y-89551024D01*
D33*
X108000000Y-89500000D02*
X117448976Y-89500000D01*
D39*
X117500000Y-89551024D02*
X117500000Y-101000000D01*
D33*
X117448976Y-89500000D02*
X117500000Y-89551024D01*
D37*
X133355674Y-118894326D02*
X131577140Y-120672860D01*
X131577140Y-120672860D02*
X111327140Y-120672860D01*
X111327140Y-120672860D02*
X111306579Y-120693421D01*
X111306579Y-120693421D02*
X111306579Y-127306579D01*
X111306579Y-127306579D02*
X111880000Y-127880000D01*
X111880000Y-127880000D02*
X114500000Y-127880000D01*
D36*
X123500000Y-135500000D02*
X135500000Y-135500000D01*
X123000000Y-136000000D02*
X123500000Y-135500000D01*
X142880000Y-135500000D02*
X135500000Y-135500000D01*
X135500000Y-135500000D02*
X133500000Y-133500000D01*
X169000000Y-112500000D02*
X169000000Y-139683125D01*
X169000000Y-139683125D02*
X168475137Y-140207988D01*
X168475137Y-140207988D02*
X140762431Y-140207988D01*
X140762431Y-140207988D02*
X140380000Y-140590419D01*
X140380000Y-140590419D02*
X140380000Y-148500000D01*
X114500000Y-127880000D02*
X114500000Y-135500000D01*
X123000000Y-137750000D02*
X122498860Y-138251140D01*
X122498860Y-138251140D02*
X114748860Y-138251140D01*
X114748860Y-138251140D02*
X114500000Y-138002280D01*
X114500000Y-138002280D02*
X114500000Y-135500000D01*
X110000000Y-78000000D02*
X110000000Y-80500000D01*
X110000000Y-80500000D02*
X114500000Y-85000000D01*
X114500000Y-85000000D02*
X115000000Y-85000000D01*
D40*
X115000000Y-85000000D02*
X117500000Y-87500000D01*
D33*
X137250000Y-157500000D02*
X137250000Y-151630000D01*
X137250000Y-151630000D02*
X140380000Y-148500000D01*
X132620000Y-155500000D02*
X135250000Y-155500000D01*
X135250000Y-155500000D02*
X137250000Y-157500000D01*
X130080000Y-155500000D02*
X132620000Y-155500000D01*
D36*
X165500000Y-121000000D02*
X165500000Y-121919238D01*
X165500000Y-112500000D02*
X169000000Y-112500000D01*
X169000000Y-112500000D02*
X169000000Y-103500000D01*
D37*
X153540140Y-74000000D02*
X165000000Y-74000000D01*
X165000000Y-74000000D02*
X169000000Y-78000000D01*
D36*
X123000000Y-137750000D02*
X123000000Y-136000000D01*
X123000000Y-133170000D02*
X123000000Y-136000000D01*
D34*
X133355674Y-118894326D02*
X134105674Y-118894326D01*
D37*
X140458055Y-118871945D02*
X141647752Y-117682248D01*
X136780000Y-122550000D02*
X139832843Y-119497157D01*
D34*
X140458055Y-118871945D02*
X139832843Y-119497157D01*
D37*
X136780000Y-123000000D02*
X136780000Y-122550000D01*
X141647752Y-117682248D02*
X141647752Y-117647752D01*
X141647752Y-117647752D02*
X153852248Y-117647752D01*
X153852248Y-117647752D02*
X159000000Y-112500000D01*
X159000000Y-112500000D02*
X165500000Y-112500000D01*
X133355674Y-118894326D02*
X134240000Y-118010000D01*
X134240000Y-118010000D02*
X134240000Y-115380000D01*
D34*
X124000000Y-75460000D02*
X124000000Y-73500000D01*
X124000000Y-73500000D02*
X124000000Y-74000000D01*
X124000000Y-74000000D02*
X124000000Y-73500000D01*
D33*
X142441060Y-80500000D02*
X142580000Y-80638940D01*
X142580000Y-80638940D02*
X142580000Y-88500000D01*
D34*
X110000000Y-78000000D02*
X110000000Y-73500000D01*
D33*
X101000000Y-75000000D02*
X101000000Y-73500000D01*
X101000000Y-73500000D02*
X101000000Y-74000000D01*
X101000000Y-74000000D02*
X101000000Y-73500000D01*
D36*
X165500000Y-116000000D02*
X165500000Y-121000000D01*
D33*
X153540140Y-80500000D02*
X153540140Y-74000000D01*
X153540140Y-74000000D02*
X153540140Y-73500000D01*
X153540140Y-73500000D02*
X153500000Y-73500000D01*
D34*
X120000000Y-75000000D02*
X120000000Y-73500000D01*
D36*
X138000000Y-73500000D02*
X153500000Y-73500000D01*
X93981200Y-74518800D02*
X95000000Y-73500000D01*
X95000000Y-73500000D02*
X101000000Y-73500000D01*
X101000000Y-73500000D02*
X110000000Y-73500000D01*
X110000000Y-73500000D02*
X120000000Y-73500000D01*
X120000000Y-73500000D02*
X124000000Y-73500000D01*
X124000000Y-73500000D02*
X125000000Y-73500000D01*
X125000000Y-73500000D02*
X138000000Y-73500000D01*
X154000000Y-80040140D02*
X153540140Y-80500000D01*
D33*
X93981200Y-79000000D02*
X93981200Y-74518800D01*
X93981200Y-74518800D02*
X94000000Y-74500000D01*
D34*
X153540140Y-80500000D02*
X153540140Y-87169860D01*
X153540140Y-87169860D02*
X152000000Y-88710000D01*
X142580000Y-88500000D02*
X142580000Y-92000000D01*
X142580000Y-88500000D02*
X146790000Y-88500000D01*
X146790000Y-88500000D02*
X147000000Y-88710000D01*
X147000000Y-88710000D02*
X152000000Y-88710000D01*
D37*
X165500000Y-112500000D02*
X165500000Y-116000000D01*
D36*
X85000000Y-85915736D02*
X85000000Y-144023407D01*
X85000000Y-144023407D02*
X102978405Y-162001812D01*
X102978405Y-162001812D02*
X140300305Y-162001812D01*
X140300305Y-162001812D02*
X141209860Y-161092257D01*
X141209860Y-161092257D02*
X141209860Y-157500000D01*
X85000000Y-79000000D02*
X85000000Y-85915736D01*
D34*
X87000000Y-86000000D02*
X85084264Y-86000000D01*
X85084264Y-86000000D02*
X85000000Y-85915736D01*
X142880000Y-143120000D02*
X142880000Y-147459970D01*
X142880000Y-147459970D02*
X142883179Y-147463149D01*
X142883179Y-147463149D02*
X142883179Y-148463179D01*
X142883179Y-148463179D02*
X142920000Y-148500000D01*
D36*
X142920000Y-148500000D02*
X142920000Y-151017140D01*
X142920000Y-151017140D02*
X141209860Y-152727280D01*
X141209860Y-152727280D02*
X141209860Y-153498230D01*
X141209860Y-153498230D02*
X141209860Y-157500000D01*
X141058940Y-161243177D02*
X141058940Y-157500000D01*
X90018800Y-79000000D02*
X85000000Y-79000000D01*
D33*
X90018800Y-79000000D02*
X90018800Y-74518800D01*
X90000000Y-74537600D02*
X90000000Y-75000000D01*
X90018800Y-74518800D02*
X90000000Y-74537600D01*
X159000000Y-120940940D02*
X162940940Y-120940940D01*
X162940940Y-120940940D02*
X163000000Y-121000000D01*
D37*
X141860000Y-123000000D02*
X141860000Y-122640000D01*
X141860000Y-122640000D02*
X143765585Y-120734415D01*
X143765585Y-120734415D02*
X158793475Y-120734415D01*
X158793475Y-120734415D02*
X159000000Y-120940940D01*
D36*
X162940940Y-120940940D02*
X163000000Y-121000000D01*
D33*
X159000000Y-116059060D02*
X162940940Y-116059060D01*
X162940940Y-116059060D02*
X163000000Y-116000000D01*
D37*
X142831951Y-119168049D02*
X155891011Y-119168049D01*
X139320000Y-123000000D02*
X139320000Y-122680000D01*
X139320000Y-122680000D02*
X142831951Y-119168049D01*
X155891011Y-119168049D02*
X159000000Y-116059060D01*
D36*
X162940940Y-116059060D02*
X163000000Y-116000000D01*
X136750000Y-111750000D02*
X136750000Y-115350000D01*
X136750000Y-115350000D02*
X136780000Y-115380000D01*
D34*
X101000000Y-80000000D02*
X105400241Y-80000000D01*
X105400241Y-80000000D02*
X106000000Y-80000000D01*
D33*
X108715000Y-83500000D02*
X107953001Y-82738001D01*
X107953001Y-82738001D02*
X107953001Y-82552760D01*
X107953001Y-82552760D02*
X105400241Y-80000000D01*
D34*
X107460000Y-79960000D02*
X107420000Y-80000000D01*
X107420000Y-80000000D02*
X106000000Y-80000000D01*
X107460000Y-78000000D02*
X107460000Y-79960000D01*
D37*
X106000000Y-80000000D02*
X106000000Y-80500000D01*
X106000000Y-80500000D02*
X106000000Y-80000000D01*
D34*
X124000000Y-78000000D02*
X125000000Y-79000000D01*
X125000000Y-79000000D02*
X125000000Y-80920000D01*
D36*
X133500000Y-147170000D02*
X133500000Y-143660000D01*
X130750000Y-150000000D02*
X133000000Y-150000000D01*
X133500000Y-149500000D02*
X133500000Y-147170000D01*
X133000000Y-150000000D02*
X133500000Y-149500000D01*
X127210001Y-152289999D02*
X125000000Y-154500000D01*
X125000000Y-154500000D02*
X125000000Y-155500000D01*
X128210000Y-150000000D02*
X127210001Y-150999999D01*
X127210001Y-150999999D02*
X127210001Y-152289999D01*
X128210000Y-150000000D02*
X128210000Y-147790000D01*
X130000000Y-146000000D02*
X130000000Y-143330000D01*
X128210000Y-147790000D02*
X130000000Y-146000000D01*
X123000000Y-143330000D02*
X123000000Y-147250000D01*
X122750000Y-147500000D02*
X122750000Y-150000000D01*
X123000000Y-147250000D02*
X122750000Y-147500000D01*
X125290000Y-150000000D02*
X125290000Y-151414213D01*
X125290000Y-151414213D02*
X122460000Y-154244213D01*
X122460000Y-154244213D02*
X122460000Y-155500000D01*
X125290000Y-150000000D02*
X125290000Y-146960000D01*
X126500000Y-145750000D02*
X126500000Y-143330000D01*
X125290000Y-146960000D02*
X126500000Y-145750000D01*
D34*
X152000000Y-91250000D02*
X152000000Y-96918880D01*
X152000000Y-96918880D02*
X151997940Y-96920940D01*
X147000000Y-91250000D02*
X148338302Y-92588302D01*
X148338302Y-92588302D02*
X148338302Y-96261042D01*
X148338302Y-96261042D02*
X148998200Y-96920940D01*
D33*
X99660000Y-98000000D02*
X99660000Y-101340000D01*
X99660000Y-101340000D02*
X99000000Y-102000000D01*
X108000000Y-101460000D02*
X108000000Y-95474044D01*
X108000000Y-95474044D02*
X107951451Y-95425495D01*
X99000000Y-102000000D02*
X107460000Y-102000000D01*
X107460000Y-102000000D02*
X108000000Y-101460000D01*
D34*
X114000000Y-123160000D02*
X118840000Y-123160000D01*
X118840000Y-123160000D02*
X119000000Y-123000000D01*
D36*
X119580000Y-127880000D02*
X119580000Y-135500000D01*
X119000000Y-123000000D02*
X119000000Y-127300000D01*
X119000000Y-127300000D02*
X119580000Y-127880000D01*
X121540000Y-124790000D02*
X126500000Y-129750000D01*
X126500000Y-129750000D02*
X126500000Y-133170000D01*
X121540000Y-123000000D02*
X121540000Y-124790000D01*
X124080000Y-124580000D02*
X130000000Y-130500000D01*
X130000000Y-130500000D02*
X130000000Y-133170000D01*
X124080000Y-123000000D02*
X124080000Y-124580000D01*
D41*
X145420000Y-135500000D02*
X145420000Y-132920000D01*
X145420000Y-132920000D02*
X142954358Y-130454358D01*
X142954358Y-130454358D02*
X133063804Y-130454358D01*
X133063804Y-130454358D02*
X126620000Y-124010554D01*
X126620000Y-124010554D02*
X126620000Y-123000000D01*
X134178240Y-128750000D02*
X143403019Y-128750000D01*
X143403019Y-128750000D02*
X147960000Y-133306981D01*
X147960000Y-133306981D02*
X147960000Y-135500000D01*
D37*
X129160000Y-123000000D02*
X129160000Y-123731760D01*
X129160000Y-123731760D02*
X134178240Y-128750000D01*
D41*
X134669664Y-127101034D02*
X134822641Y-127254011D01*
X150500000Y-133183302D02*
X150500000Y-135500000D01*
X134822641Y-127254011D02*
X144570709Y-127254011D01*
X144570709Y-127254011D02*
X150500000Y-133183302D01*
D37*
X131700000Y-123000000D02*
X131700000Y-124131370D01*
X131700000Y-124131370D02*
X134669664Y-127101034D01*
D41*
X144400000Y-123000000D02*
X144400000Y-123450000D01*
X144400000Y-123450000D02*
X144500000Y-123550000D01*
X144500000Y-123550000D02*
X144500000Y-124790507D01*
X144500000Y-124790507D02*
X153040000Y-133330507D01*
X153040000Y-133330507D02*
X153040000Y-135500000D01*
X146940000Y-123000000D02*
X146940000Y-124657122D01*
X146940000Y-124657122D02*
X155532878Y-133250000D01*
X155532878Y-133250000D02*
X155580000Y-133250000D01*
X155580000Y-133250000D02*
X155580000Y-135500000D01*
X149480000Y-123000000D02*
X149480000Y-124610000D01*
X149480000Y-124610000D02*
X158120000Y-133250000D01*
X158120000Y-133250000D02*
X158120000Y-135500000D01*
D36*
X152020000Y-123000000D02*
X152420000Y-123000000D01*
X152420000Y-123000000D02*
X155420000Y-126000000D01*
D37*
X161497540Y-107703220D02*
X161497540Y-107080940D01*
X153820760Y-115380000D02*
X161497540Y-107703220D01*
X152020000Y-115380000D02*
X153820760Y-115380000D01*
D41*
X149480000Y-115380000D02*
X149480000Y-114930000D01*
X149480000Y-114930000D02*
X152773384Y-111636616D01*
X152773384Y-111636616D02*
X154863384Y-111636616D01*
X154863384Y-111636616D02*
X158000000Y-108500000D01*
X158000000Y-108500000D02*
X158000000Y-107080000D01*
D37*
X149480000Y-115380000D02*
X149480000Y-114826928D01*
X146940000Y-115380000D02*
X146940000Y-114930000D01*
X155000000Y-107417478D02*
X155000000Y-107080000D01*
X146940000Y-114930000D02*
X151780932Y-110089068D01*
X151780932Y-110089068D02*
X152328410Y-110089068D01*
X152328410Y-110089068D02*
X155000000Y-107417478D01*
X144400000Y-115380000D02*
X144400000Y-114567475D01*
X151886535Y-107080940D02*
X151997940Y-107080940D01*
X144400000Y-114567475D02*
X151886535Y-107080940D01*
X141860000Y-115380000D02*
X141860000Y-114219140D01*
X141860000Y-114219140D02*
X148998200Y-107080940D01*
X132000000Y-115380000D02*
X132000000Y-105500000D01*
X132000000Y-92420000D02*
X132420000Y-92000000D01*
X132000000Y-105500000D02*
X132000000Y-92420000D01*
X132000000Y-105500000D02*
X132000000Y-105500000D01*
D33*
X134518800Y-80500000D02*
X134518800Y-84981200D01*
D36*
X135500000Y-92000000D02*
X132420000Y-92000000D01*
X135500000Y-85962400D02*
X135500000Y-92000000D01*
X134518800Y-84981200D02*
X135500000Y-85962400D01*
D37*
X129500000Y-115380000D02*
X129500000Y-91420000D01*
X129500000Y-91420000D02*
X132420000Y-88500000D01*
D33*
X130558940Y-80500000D02*
X130558940Y-86638940D01*
X130558940Y-86638940D02*
X132420000Y-88500000D01*
D36*
X104080000Y-123500000D02*
X104080000Y-123205818D01*
X104080000Y-123205818D02*
X104080000Y-119420000D01*
D37*
X104266051Y-119233949D02*
X104080000Y-119420000D01*
D41*
X123216051Y-119233949D02*
X105266051Y-119233949D01*
X126620000Y-115830000D02*
X123216051Y-119233949D01*
D37*
X105266051Y-119233949D02*
X104266051Y-119233949D01*
D41*
X126620000Y-115380000D02*
X126620000Y-115830000D01*
D37*
X101744689Y-117755311D02*
X101540000Y-117960000D01*
D38*
X101540000Y-117960000D02*
X101540000Y-123500000D01*
D37*
X104244689Y-117755311D02*
X101744689Y-117755311D01*
D41*
X124080000Y-115380000D02*
X124080000Y-115830000D01*
X124080000Y-115830000D02*
X122154689Y-117755311D01*
X122154689Y-117755311D02*
X104244689Y-117755311D01*
D37*
X121540000Y-113460000D02*
X122016446Y-112983554D01*
X124676446Y-112983554D02*
X127000000Y-110660000D01*
X122016446Y-112983554D02*
X124676446Y-112983554D01*
D36*
X121540000Y-115380000D02*
X121540000Y-113460000D01*
X127000000Y-106500000D02*
X127000000Y-110660000D01*
X119000000Y-106500000D02*
X127000000Y-106500000D01*
X119000000Y-115380000D02*
X119000000Y-110746450D01*
X119000000Y-110746450D02*
X119000000Y-109040000D01*
X123000000Y-110580000D02*
X119166450Y-110580000D01*
X119166450Y-110580000D02*
X119000000Y-110746450D01*
D34*
X145420000Y-143120000D02*
X145420000Y-148460000D01*
X145420000Y-148460000D02*
X145460000Y-148500000D01*
D36*
X145460000Y-148500000D02*
X145460000Y-157209720D01*
X145460000Y-157209720D02*
X145169720Y-157500000D01*
D34*
X147960000Y-143120000D02*
X147960000Y-148460000D01*
X147960000Y-148460000D02*
X148000000Y-148500000D01*
D37*
X148000000Y-153000000D02*
X148130970Y-153000000D01*
X148130970Y-153000000D02*
X149129580Y-153998610D01*
X149129580Y-153998610D02*
X149129580Y-157500000D01*
X148000000Y-148500000D02*
X148000000Y-153000000D01*
X155620000Y-148500000D02*
X155620000Y-149629522D01*
X155620000Y-149629522D02*
X161018800Y-155028322D01*
X161018800Y-155028322D02*
X161018800Y-157500000D01*
D34*
X155580000Y-143120000D02*
X155580000Y-148460000D01*
X155580000Y-148460000D02*
X155620000Y-148500000D01*
X163000000Y-145500000D02*
X160660000Y-143160000D01*
X160660000Y-143160000D02*
X160660000Y-143120000D01*
X163000000Y-146620000D02*
X163000000Y-145500000D01*
X163000000Y-146620000D02*
X168941060Y-152561060D01*
X168941060Y-152561060D02*
X168941060Y-157500000D01*
X91000000Y-112500000D02*
X91000000Y-106500000D01*
X91000000Y-106500000D02*
X90000000Y-105500000D01*
D37*
X99000000Y-105601720D02*
X99000000Y-110847580D01*
X99000000Y-110847580D02*
X94460000Y-115387580D01*
X94460000Y-115387580D02*
X94460000Y-117000000D01*
X99000000Y-105601720D02*
X89937716Y-105601720D01*
X89937716Y-105601720D02*
X89915333Y-105624103D01*
D34*
X94460000Y-117000000D02*
X93920000Y-117540000D01*
X93920000Y-117540000D02*
X93920000Y-123649085D01*
X93920000Y-123649085D02*
X93926236Y-123655321D01*
X93926236Y-123655321D02*
X93920000Y-123661557D01*
X93920000Y-123661557D02*
X93920000Y-131920000D01*
X93920000Y-131920000D02*
X94000000Y-132000000D01*
D33*
X108000000Y-106540000D02*
X108000000Y-114000000D01*
X99000000Y-105601720D02*
X107061720Y-105601720D01*
X107061720Y-105601720D02*
X108000000Y-106540000D01*
D34*
X150500000Y-143120000D02*
X150500000Y-148460000D01*
X150500000Y-148460000D02*
X150540000Y-148500000D01*
D37*
X150540000Y-148500000D02*
X150540000Y-151540000D01*
X150540000Y-151540000D02*
X153089440Y-154089440D01*
X153089440Y-154089440D02*
X153089440Y-157500000D01*
D34*
X152840000Y-157398940D02*
X152941060Y-157500000D01*
X153040000Y-143120000D02*
X153040000Y-148460000D01*
X153040000Y-148460000D02*
X153080000Y-148500000D01*
D37*
X153000000Y-150000000D02*
X153060330Y-150000000D01*
X153060330Y-150000000D02*
X157058940Y-153998610D01*
X157058940Y-153998610D02*
X157058940Y-157500000D01*
X153000000Y-148732400D02*
X153000000Y-150000000D01*
X153080000Y-148500000D02*
X153080000Y-148652400D01*
X153080000Y-148652400D02*
X153000000Y-148732400D01*
D34*
X97000000Y-117000000D02*
X99068226Y-119068226D01*
X99068226Y-119068226D02*
X99068226Y-123920372D01*
D37*
X109160000Y-136660000D02*
X109160000Y-123500000D01*
X109160000Y-136660000D02*
X114000000Y-141500000D01*
X114000000Y-141500000D02*
X113960000Y-141540000D01*
X113960000Y-141540000D02*
X113960000Y-145960000D01*
D41*
X164855579Y-138144421D02*
X164840973Y-138129815D01*
X164840973Y-138129815D02*
X129870185Y-138129815D01*
X129870185Y-138129815D02*
X129855579Y-138144421D01*
D36*
X165580000Y-126000000D02*
X165580000Y-127767766D01*
X165580000Y-127767766D02*
X165500000Y-127847766D01*
X165500000Y-127847766D02*
X165500000Y-137500000D01*
X165500000Y-137500000D02*
X164855579Y-138144421D01*
X129855579Y-138144421D02*
X127500000Y-140500000D01*
X127500000Y-140500000D02*
X116500000Y-140500000D01*
X116500000Y-140500000D02*
X116500000Y-145960000D01*
D33*
X116500000Y-145960000D02*
X116500000Y-148500000D01*
D37*
X113960000Y-148500000D02*
X110500000Y-148500000D01*
X110500000Y-148500000D02*
X106000000Y-144000000D01*
X106000000Y-144000000D02*
X92000000Y-144000000D01*
X92000000Y-144000000D02*
X91000000Y-143000000D01*
X91000000Y-143000000D02*
X91000000Y-116396131D01*
X91000000Y-116396131D02*
X96000260Y-111395871D01*
X96000260Y-111395871D02*
X96000260Y-107300980D01*
D34*
X158120000Y-143120000D02*
X158120000Y-148460000D01*
X158120000Y-148460000D02*
X158160000Y-148500000D01*
D37*
X158160000Y-148500000D02*
X160024360Y-148500000D01*
X160024360Y-148500000D02*
X164981200Y-153456840D01*
X164981200Y-153456840D02*
X164981200Y-153998610D01*
X164981200Y-153998610D02*
X164981200Y-157500000D01*
D34*
X145000000Y-99500000D02*
X145000000Y-96580000D01*
X145000000Y-96580000D02*
X145080000Y-96500000D01*
D37*
X147657446Y-99799018D02*
X147358428Y-99500000D01*
X147358428Y-99500000D02*
X145000000Y-99500000D01*
D41*
X144983782Y-96525905D02*
X144983782Y-97125354D01*
X147657446Y-99799018D02*
X155000000Y-99799018D01*
X155000000Y-99799018D02*
X155000000Y-96920000D01*
D34*
X157500000Y-80500000D02*
X157500000Y-88500000D01*
X155000000Y-91000000D02*
X155000000Y-96920000D01*
X157500000Y-88500000D02*
X155000000Y-91000000D01*
X161459860Y-80500000D02*
X161459860Y-88215321D01*
X161459860Y-88215321D02*
X162255422Y-89010883D01*
X162255422Y-89010883D02*
X161489117Y-89010883D01*
X161489117Y-89010883D02*
X158000000Y-92500000D01*
X158000000Y-92500000D02*
X158000000Y-96920000D01*
D37*
X145080000Y-102500000D02*
X146847766Y-102500000D01*
X146847766Y-102500000D02*
X147339236Y-102008530D01*
X147339236Y-102008530D02*
X147634550Y-102008530D01*
D41*
X157250000Y-101250000D02*
X157250000Y-101000000D01*
X147634550Y-102008530D02*
X156241470Y-102008530D01*
X157250000Y-101000000D02*
X158250000Y-100000000D01*
X156241470Y-102008530D02*
X157000000Y-101250000D01*
X157000000Y-101250000D02*
X157250000Y-101250000D01*
X158250000Y-100000000D02*
X158250000Y-97170000D01*
X158250000Y-97170000D02*
X158000000Y-96920000D01*
D34*
X163000000Y-93000000D02*
X163113865Y-93000000D01*
X163113865Y-93000000D02*
X165163744Y-90950121D01*
X161497540Y-96920940D02*
X161497540Y-94502460D01*
X161497540Y-94502460D02*
X163000000Y-93000000D01*
X165419720Y-80500000D02*
X165163744Y-80755976D01*
X165163744Y-80755976D02*
X165163744Y-90950121D01*
D41*
X161497540Y-96920940D02*
X161500000Y-96923400D01*
X157459050Y-104040950D02*
X147465578Y-104040950D01*
X145000000Y-106506528D02*
X145000000Y-107000000D01*
X161500000Y-96923400D02*
X161500000Y-100000000D01*
X147465578Y-104040950D02*
X145000000Y-106506528D01*
X161500000Y-100000000D02*
X157459050Y-104040950D01*
X161000000Y-97418480D02*
X161497540Y-96920940D01*
D42*
G36*
X169182540Y-122373000D02*
X165127000Y-122373000D01*
X165127000Y-122012431D01*
X165195766Y-121909516D01*
X165376680Y-121000000D01*
X165195766Y-120090484D01*
X165127000Y-119987568D01*
X165127000Y-117012432D01*
X165195766Y-116909516D01*
X165376680Y-116000000D01*
X165195766Y-115090484D01*
X165127000Y-114987569D01*
X165127000Y-112127000D01*
X169182540Y-112127000D01*
X169182540Y-122373000D01*
X169182540Y-122373000D01*
G37*
X169182540Y-122373000D02*
X165127000Y-122373000D01*
X165127000Y-122012431D01*
X165195766Y-121909516D01*
X165376680Y-121000000D01*
X165195766Y-120090484D01*
X165127000Y-119987568D01*
X165127000Y-117012432D01*
X165195766Y-116909516D01*
X165376680Y-116000000D01*
X165195766Y-115090484D01*
X165127000Y-114987569D01*
X165127000Y-112127000D01*
X169182540Y-112127000D01*
X169182540Y-122373000D01*
M02*
